<svg data-v-423bf9ae="" xmlns="http://www.w3.org/2000/svg" viewBox="0 0 419 90" class="iconLeft"><!----><!----><!----><g data-v-423bf9ae="" id="67d6d16a-7d7b-4b25-b8f8-c47f345e6afd" fill="#FFFFFF" transform="matrix(5.830903811703725,0,0,5.830903811703725,107.88235725835901,12.551021672677557)"><path d="M4.65 8.74C4.42 8.81 4.21 8.82 4.07 8.82C3.42 8.82 3.42 8.37 3.42 7.74L3.42 4.89L4.80 4.89L4.80 3.22L3.42 3.22L3.42 1.12L1.32 1.72L1.32 3.22L0.28 3.22L0.28 4.89L1.32 4.89L1.32 8.37C1.32 9.80 1.92 10.64 3.44 10.64C3.71 10.64 4.49 10.56 4.77 10.40ZM12.67 7.46C12.67 7.43 12.68 7 12.68 6.57C12.68 4.13 11.02 3.01 9.18 3.01C7.32 3.01 5.57 4.17 5.57 6.86C5.57 9.55 7.31 10.71 9.18 10.71C10.93 10.71 12.01 9.97 12.56 8.53L10.60 8.12C10.43 8.58 10.00 8.96 9.32 8.96C8.39 8.96 7.73 8.47 7.67 7.46ZM9.13 4.76C9.94 4.76 10.50 5.26 10.56 6.03L7.70 6.03C7.78 5.24 8.43 4.76 9.13 4.76ZM15.48 6.86C15.48 5.50 15.99 4.76 16.86 4.76C17.53 4.76 18.00 5.12 18.16 5.99L20.22 5.68C19.82 3.74 18.42 3.01 16.86 3.01C14.98 3.01 13.38 4.17 13.38 6.86C13.38 9.55 14.98 10.71 16.86 10.71C18.42 10.71 19.82 10.00 20.22 8.05L18.14 7.76C17.99 8.61 17.53 8.96 16.86 8.96C15.95 8.96 15.48 8.22 15.48 6.86ZM23.44 10.50L23.44 6.54C23.44 5.36 24.04 4.77 24.77 4.77C25.58 4.77 25.89 5.25 25.89 6.09L25.89 10.50L27.99 10.50L27.99 6.03C27.99 4.30 27.36 3.01 25.34 3.01C24.47 3.01 23.93 3.33 23.44 4.13L23.44 0.42L21.34 0.42L21.34 10.50ZM29.53 0.42L29.53 10.50L31.49 10.50L31.49 9.65C31.91 10.35 32.56 10.71 33.39 10.71C35.13 10.71 36.53 9.41 36.53 6.86C36.53 4.31 35.06 3.01 33.32 3.01C32.73 3.01 32.05 3.19 31.63 3.85L31.63 0.42ZM31.47 6.86C31.47 5.43 32.05 4.76 32.94 4.76C33.84 4.76 34.43 5.43 34.43 6.86C34.43 8.29 33.78 8.96 32.96 8.96C32.13 8.96 31.47 8.29 31.47 6.86ZM39.75 2.32L39.75 0.42L37.65 0.42L37.65 2.32ZM39.75 10.50L39.75 3.22L37.65 3.22L37.65 10.50ZM45.16 8.74C44.94 8.81 44.73 8.82 44.59 8.82C43.93 8.82 43.93 8.37 43.93 7.74L43.93 4.89L45.32 4.89L45.32 3.22L43.93 3.22L43.93 1.12L41.83 1.72L41.83 3.22L40.80 3.22L40.80 4.89L41.83 4.89L41.83 8.37C41.83 9.80 42.43 10.64 43.96 10.64C44.23 10.64 45.01 10.56 45.29 10.40ZM53.19 7.46C53.19 7.43 53.20 7 53.20 6.57C53.20 4.13 51.53 3.01 49.70 3.01C47.84 3.01 46.09 4.17 46.09 6.86C46.09 9.55 47.82 10.71 49.70 10.71C51.45 10.71 52.53 9.97 53.07 8.53L51.11 8.12C50.95 8.58 50.51 8.96 49.84 8.96C48.90 8.96 48.24 8.47 48.19 7.46ZM49.64 4.76C50.46 4.76 51.02 5.26 51.07 6.03L48.22 6.03C48.30 5.24 48.94 4.76 49.64 4.76Z"></path></g><!----><g data-v-423bf9ae="" id="c126fa41-716d-40ba-b4d1-751437833530" transform="matrix(1.0000000847710575,0,0,1.0000000847710575,-4.757503933334654,-5.000000423855283)" stroke="none" fill="#39C643"><path d="M85.434 5H14.566a9.325 9.325 0 0 0-9.324 9.324v71.352c0 5.148 4.175 9.324 9.324 9.324h70.867c5.149 0 9.324-4.176 9.324-9.324V14.324C94.758 9.175 90.583 5 85.434 5zM41.501 38.479l-.16.16-.184.132a250.76 250.76 0 0 0-3.595 2.642c-1.519 1.132-2.852 2.13-4.077 3.049a1060.783 1060.783 0 0 1-4.062 3.03c-1.293.96-2.515 1.854-3.632 2.659l-.219.157-.244.113c-.926.426-1.86.643-2.78.643-1.448 0-2.739-.501-3.731-1.449-1.028-.979-1.573-2.269-1.573-3.727 0-1.292.421-2.52 1.25-3.649l.245-.333.331-.249c.857-.644 1.871-1.396 3.01-2.233a288.068 288.068 0 0 0 3.406-2.546 307.258 307.258 0 0 1 3.474-2.598l.046-.034a395.269 395.269 0 0 1-3.364-2.618 497.213 497.213 0 0 0-3.449-2.683 107.815 107.815 0 0 1-2.837-2.244l-.215-.177-.176-.216c-.971-1.193-1.463-2.501-1.463-3.887 0-1.432.527-2.716 1.526-3.715.999-.998 2.306-1.526 3.778-1.526.736 0 1.527.166 2.417.508l.229.087.21.127c.298.179.717.479 1.789 1.367a79.726 79.726 0 0 0 2.641 2.081c1.077.819 2.23 1.721 3.43 2.679 1.164.932 2.281 1.804 3.321 2.593 1.092.832 2.029 1.56 2.786 2.164.748.6 1.229.983 1.441 1.153 1.882 1.487 2.278 3.235 2.278 4.439.001 1.028-.32 2.573-1.847 4.101zM77.405 61.27c-.808.888-1.924 1.512-3.32 1.862l-.335.085H50.133l-.127-.012c-2.116-.194-3.331-1.15-3.977-1.918-.871-1.039-1.331-2.25-1.331-3.504 0-1.364.524-2.634 1.517-3.671.974-1.018 2.318-1.607 3.998-1.752l.119-.011h23.626l.351.093c1.436.376 2.554 1.09 3.326 2.119.756 1.007 1.139 2.091 1.139 3.222-.001 1.294-.474 2.499-1.369 3.487z"></path></g><!----></svg>