<?xml version="1.0" encoding="UTF-8" standalone="no"?>
<svg
   data-v-423bf9ae=""
   viewBox="0 0 419 90"
   class="iconLeft"
   version="1.1"
   id="svg103"
   sodipodi:docname="default-no-text.svg"
   inkscape:version="1.1 (c4e8f9e, 2021-05-24)"
   xmlns:inkscape="http://www.inkscape.org/namespaces/inkscape"
   xmlns:sodipodi="http://sodipodi.sourceforge.net/DTD/sodipodi-0.dtd"
   xmlns="http://www.w3.org/2000/svg"
   xmlns:svg="http://www.w3.org/2000/svg">
  <defs
     id="defs107" />
  <sodipodi:namedview
     id="namedview105"
     pagecolor="#ffffff"
     bordercolor="#666666"
     borderopacity="1.0"
     inkscape:pageshadow="2"
     inkscape:pageopacity="0.0"
     inkscape:pagecheckerboard="0"
     showgrid="false"
     inkscape:zoom="3.0334129"
     inkscape:cx="209.5"
     inkscape:cy="45.163651"
     inkscape:window-width="1440"
     inkscape:window-height="786"
     inkscape:window-x="0"
     inkscape:window-y="25"
     inkscape:window-maximized="0"
     inkscape:current-layer="svg103" />
  <!---->
  <!---->
  <!---->
  <!---->
  <g
     data-v-423bf9ae=""
     id="c126fa41-716d-40ba-b4d1-751437833530"
     transform="matrix(1.0000000847710575,0,0,1.0000000847710575,-4.757503933334654,-5.000000423855283)"
     stroke="none"
     fill="#39C643">
    <path
       d="M85.434 5H14.566a9.325 9.325 0 0 0-9.324 9.324v71.352c0 5.148 4.175 9.324 9.324 9.324h70.867c5.149 0 9.324-4.176 9.324-9.324V14.324C94.758 9.175 90.583 5 85.434 5zM41.501 38.479l-.16.16-.184.132a250.76 250.76 0 0 0-3.595 2.642c-1.519 1.132-2.852 2.13-4.077 3.049a1060.783 1060.783 0 0 1-4.062 3.03c-1.293.96-2.515 1.854-3.632 2.659l-.219.157-.244.113c-.926.426-1.86.643-2.78.643-1.448 0-2.739-.501-3.731-1.449-1.028-.979-1.573-2.269-1.573-3.727 0-1.292.421-2.52 1.25-3.649l.245-.333.331-.249c.857-.644 1.871-1.396 3.01-2.233a288.068 288.068 0 0 0 3.406-2.546 307.258 307.258 0 0 1 3.474-2.598l.046-.034a395.269 395.269 0 0 1-3.364-2.618 497.213 497.213 0 0 0-3.449-2.683 107.815 107.815 0 0 1-2.837-2.244l-.215-.177-.176-.216c-.971-1.193-1.463-2.501-1.463-3.887 0-1.432.527-2.716 1.526-3.715.999-.998 2.306-1.526 3.778-1.526.736 0 1.527.166 2.417.508l.229.087.21.127c.298.179.717.479 1.789 1.367a79.726 79.726 0 0 0 2.641 2.081c1.077.819 2.23 1.721 3.43 2.679 1.164.932 2.281 1.804 3.321 2.593 1.092.832 2.029 1.56 2.786 2.164.748.6 1.229.983 1.441 1.153 1.882 1.487 2.278 3.235 2.278 4.439.001 1.028-.32 2.573-1.847 4.101zM77.405 61.27c-.808.888-1.924 1.512-3.32 1.862l-.335.085H50.133l-.127-.012c-2.116-.194-3.331-1.15-3.977-1.918-.871-1.039-1.331-2.25-1.331-3.504 0-1.364.524-2.634 1.517-3.671.974-1.018 2.318-1.607 3.998-1.752l.119-.011h23.626l.351.093c1.436.376 2.554 1.09 3.326 2.119.756 1.007 1.139 2.091 1.139 3.222-.001 1.294-.474 2.499-1.369 3.487z"
       id="path100" />
  </g>
  <!---->
</svg>
